<svg xmlns="http://www.w3.org/2000/svg" viewBox="0 0 32 32"><path fill="#ffcc5c" d="M21.057 11.311L15.5 10l-5.502 1.3c-2.986.595-4.801 1.636-4.801 2.751 0 1.785 4.651 3.253 10.303 3.253s10.303-1.469 10.303-3.253c0-1.108-1.792-2.142-4.746-2.74z"/><path fill="#f7b546" d="M21.057 11.311L15.5 10l-1.999.472 3.555.839c2.954.597 4.746 1.632 4.746 2.74 0 1.569-3.594 2.893-8.303 3.19.648.041 1.316.063 2 .063 5.652 0 10.303-1.469 10.303-3.253.001-1.108-1.791-2.142-4.745-2.74z"/><path fill="#ffcc5c" d="M20.148 6.663a1.791 1.791 0 0 0-2.732-1.056l-.425.283a2.688 2.688 0 0 1-2.982 0l-.425-.283a1.792 1.792 0 0 0-2.732 1.056L9.677 13.48c0 1.016 2.607 1.839 5.823 1.839s5.823-.823 5.823-1.839l-1.175-6.817z"/><path fill="#f7b546" d="M20.148 6.663c-.244-.975-1.21-1.502-2.117-1.305.044.098.09.195.117.305l1.175 6.817c0 1.016-2.607 1.839-5.823 1.839-1.386 0-2.657-.153-3.656-.409.614.808 2.91 1.409 5.656 1.409 3.216 0 5.823-.823 5.823-1.839l-1.175-6.817z"/><path fill="#4c6d86" d="M20.995 11.578c-.049.946-2.489 1.708-5.495 1.708s-5.446-.762-5.495-1.708l-.328 1.902c0 1.016 2.607 1.839 5.823 1.839s5.823-.823 5.823-1.839l-.328-1.902z"/><path fill="#41667d" d="M20.995 11.578c-.026.493-.71.933-1.777 1.244-.509.852-2.873 1.497-5.719 1.497-1.386 0-2.657-.153-3.656-.409.228.3.689.571 1.318.793l.042.014c.205.071.426.137.663.198l.022.005a11.28 11.28 0 0 0 .787.166c.253.044.519.082.793.114l.141.016a17.297 17.297 0 0 0 1.891.101c3.216 0 5.823-.823 5.823-1.839l-.328-1.9z"/><path fill="#d5e5f1" d="M14.092 24c.207-.581.757-1 1.408-1s1.201.419 1.408 1h1.042c-.232-1.14-1.242-2-2.449-2s-2.217.86-2.449 2h1.04zM19.5 21.304h-8a.5.5 0 0 1 0-1h8a.5.5 0 0 1 0 1z"/><path fill="#99b5ce" d="M16.014 22.059c-.003.045-.014.088-.014.134v.333c0 .206.035.403.066.6a1.5 1.5 0 0 1 .841.874h1.042a2.502 2.502 0 0 0-1.935-1.941zM16.232 21.304H19.5a.5.5 0 0 0 0-1h-1.611c-.72 0-1.338.408-1.657 1zM11 20.804a.5.5 0 0 0 .5.5h3.268a1.88 1.88 0 0 0-1.657-1H11.5a.5.5 0 0 0-.5.5zM13.051 24h1.042c.143-.401.456-.715.847-.877.031-.196.06-.392.06-.597v-.333c0-.046-.01-.089-.014-.134A2.502 2.502 0 0 0 13.051 24z"/><path fill="#3c3b42" d="M20.278 26.304h1.667a1.89 1.89 0 0 0 1.889-1.889v-2.852a1.26 1.26 0 0 0-1.259-1.259H18.39a1.89 1.89 0 0 0-1.889 1.889v.333c0 1.143.508 2.168 1.31 2.86a3.756 3.756 0 0 0 2.467.918z"/><path fill="#d5e5f1" d="M24.333 22.138h-1a.5.5 0 0 1 0-1h1a.5.5 0 0 1 0 1z"/><path fill="#2b2a2f" d="M17.65 20.454a1.89 1.89 0 0 0-.15.739v.333a3.778 3.778 0 0 0 3.778 3.778h1.667c.262 0 .512-.054.739-.15a1.89 1.89 0 0 1-1.739 1.15h-1.667a3.778 3.778 0 0 1-3.778-3.778v-.333a1.89 1.89 0 0 1 1.15-1.739z"/><path fill="#3c3b42" d="M10.722 26.304H9.056a1.89 1.89 0 0 1-1.889-1.889v-2.852a1.26 1.26 0 0 1 1.259-1.259h4.185a1.89 1.89 0 0 1 1.889 1.889v.333a3.777 3.777 0 0 1-3.778 3.778z"/><path fill="#2b2a2f" d="M13.35 20.454c.096.227.15.476.15.739v.333a3.778 3.778 0 0 1-3.778 3.778H8.056c-.262 0-.512-.054-.739-.15a1.89 1.89 0 0 0 1.739 1.15h1.667a3.778 3.778 0 0 0 3.778-3.778v-.333a1.892 1.892 0 0 0-1.151-1.739z"/><path fill="#d5e5f1" d="M7.667 22.138h-1a.5.5 0 0 1 0-1h1a.5.5 0 0 1 0 1z"/><path fill="#99b5ce" d="M7.667 21.138h-.5a.5.5 0 0 1 0 1h.5a.5.5 0 0 0 0-1zM23.333 22.138h.5a.5.5 0 0 1 0-1h-.5a.5.5 0 0 0 0 1z"/></svg>