<svg xmlns="http://www.w3.org/2000/svg" width="32" height="32" viewBox="0 0 32 32"><g style="line-height:125%" font-family="sans-serif" font-size="45.121" font-weight="400" letter-spacing="0" transform="translate(0 -1020.362)" word-spacing="0"><path style="isolation:auto;mix-blend-mode:normal" fill="#f8b84e" d="m 6.9999995,1030.0477 c -1.2995888,1.8494 -1.9979228,4.0542 -2,6.3145 0.00488,2.2556 0.7030862,4.4553 2,6.3008 z M 25,1030.0614 l 0,12.6153 c 1.299589,-1.8494 1.997923,-4.0542 2,-6.3145 -0.0049,-2.2556 -0.703086,-4.4553 -2,-6.3008 z" color="#000" overflow="visible"/><path d="m 8.5,1022.3613 a 0.50005,0.50005 0 0 0 -0.5,0.5 l 0,27 a 0.50005,0.50005 0 0 0 0.5,0.5 l 15,0 a 0.50005,0.50005 0 0 0 0.5,-0.5 l 0,-27 a 0.50005,0.50005 0 0 0 -0.5,-0.5 l -15,0 z m 0.5,1 14,0 0,26 -14,0 0,-26 z" color="#000" font-size="medium" overflow="visible" style="line-height:125%;text-indent:0;text-align:start;text-decoration-line:none;text-decoration-style:solid;text-decoration-color:#000;text-transform:none;block-progression:tb;isolation:auto;mix-blend-mode:normal"/><path style="line-height:125%;text-indent:0;text-align:start;text-decoration-line:none;text-decoration-style:solid;text-decoration-color:#000;text-transform:none;block-progression:tb;isolation:auto;mix-blend-mode:normal" fill-rule="evenodd" d="m 14,1024.3613 0,1 4,0 0,-1 -4,0 z" color="#000" font-size="medium" overflow="visible"/><path style="isolation:auto;mix-blend-mode:normal" fill="#25b39e" d="m 10,1026.3622 12,0 0,19 -12,0 z" color="#000" overflow="visible"/><path d="m 17,1047.3622 a 1,1 0 0 1 -1,1 1,1 0 0 1 -1,-1 1,1 0 0 1 1,-1 1,1 0 0 1 1,1 z" color="#000" overflow="visible" style="isolation:auto;mix-blend-mode:normal"/><path style="isolation:auto;mix-blend-mode:normal" fill="#f8b84e" d="m 21.495404,1036.3634 a 4.9999871,4.9999871 0 0 1 -4.999987,5 4.9999871,4.9999871 0 0 1 -4.999987,-5 4.9999871,4.9999871 0 0 1 4.999987,-5 4.9999871,4.9999871 0 0 1 4.999987,5 z" color="#000" overflow="visible"/><path d="m 10.503906,1031.375 0,1 0.5,0 0.703125,0 0.5,0 0,-1 -0.5,0 -0.703125,0 -0.5,0 z m 1.726563,0.9863 0,1 0.5,0 6.576172,0 -0.972657,3 -4.804687,0 -0.5,0 0,1 0.5,0 5.167969,0 a 0.50005,0.50005 0 0 0 0.474609,-0.3457 l 1.298828,-4 a 0.50005,0.50005 0 0 0 -0.474609,-0.6543 l -7.265625,0 -0.5,0 z" color="#000" font-size="medium" overflow="visible" style="line-height:125%;text-indent:0;text-align:start;text-decoration-line:none;text-decoration-style:solid;text-decoration-color:#000;text-transform:none;block-progression:tb;isolation:auto;mix-blend-mode:normal"/><path d="m 12.138672,1031.3613 a 0.50005,0.50005 0 0 0 -0.458984,0.6231 l 1.679687,7 a 0.50005,0.50005 0 0 0 0.486328,0.3847 l 4.154297,0 a 0.50005,0.50005 0 1 0 0,-1 l -3.759766,0 -1.589843,-6.6171 a 0.50005,0.50005 0 0 0 -0.511719,-0.3907 z" color="#000" font-size="medium" overflow="visible" style="line-height:125%;text-indent:0;text-align:start;text-decoration-line:none;text-decoration-style:solid;text-decoration-color:#000;text-transform:none;block-progression:tb;isolation:auto;mix-blend-mode:normal"/><path d="M13.960938 1038.3652c-.82209 0-1.498066.676-1.498047 1.4981-.000019.8221.675957 1.5 1.498047 1.5.822089 0 1.500018-.6779 1.5-1.5.000018-.8221-.677911-1.4981-1.5-1.4981zm0 1c.281375 0 .500006.2162.5.4981.000006.2819-.218625.5-.5.5-.281376 0-.498054-.2181-.498047-.5-.000007-.2819.216671-.4981.498047-.4981zM17.917969 1038.3652c-.82209 0-1.500018.676-1.5 1.4981-.000018.8221.67791 1.5 1.5 1.5.822089 0 1.498065-.6779 1.498047-1.5.000018-.8221-.675958-1.4981-1.498047-1.4981zm0 1c.281375 0 .498053.2162.498047.4981.000006.2819-.216672.5-.498047.5-.281375 0-.500006-.2181-.5-.5-.000006-.2819.218625-.4981.5-.4981z" color="#000" font-size="medium" overflow="visible" style="line-height:125%;text-indent:0;text-align:start;text-decoration-line:none;text-decoration-style:solid;text-decoration-color:#000;text-transform:none;block-progression:tb;isolation:auto;mix-blend-mode:normal"/><path style="line-height:125%;text-indent:0;text-align:start;text-decoration-line:none;text-decoration-style:solid;text-decoration-color:#000;text-transform:none;block-progression:tb;isolation:auto;mix-blend-mode:normal" fill-rule="evenodd" d="m 15.859375,1034.3613 0,1 3.595703,0 0,-1 -3.595703,0 z" color="#000" font-size="medium" overflow="visible"/><path d="M25.886719 1029.8242l.261719.4278.464843.7636.0078.012.02148.047.226563.4453.892578-.4511-.226563-.4473-.04102-.08-.01953-.033-.472656-.7773-.261719-.4258zm1.371093 2.5332l.154297.4746.169922.5215.002 0 .0957.3985.117187.4863.972656-.2344-.117187-.4863-.09766-.4024-.0098-.037-.181641-.5586-.154297-.4746zm.671876 2.7988l.04297.4981.01563.1953.0059.7656.0059.5 1-.01-.0059-.5-.0059-.7812-.002-.037-.01758-.2188-.04297-.498zm-.140626 3.3321l-.152343.6816-.07617.25-.146485.4785.957032.293.144531-.4785.08203-.2695.0098-.037.158203-.7011.107422-.4883L27.898438 1038zm-.923828 2.7226l-.144531.3028-.0039.01-.310547.5312-.251953.4317.863281.5058.251953-.4316.314453-.5391.01758-.035.164063-.3379.21875-.4512-.900391-.4355zM6.1132812 1029.8242l-.2617187.4278-.4648437.7636-.00781.012-.021484.047-.2265625.4453-.8925782-.4511.2265626-.4473.041016-.08.019531-.033.4726563-.7773.2617187-.4258zm-1.3710937 2.5332l-.1542969.4746-.1699218.5215-.00195 0-.095703.3985-.1171875.4863-.9726562-.2344.1171874-.4863.097656-.4024.00977-.037.1816407-.5586.1542968-.4746zm-.671875 2.7988l-.042969.4981-.015625.1953-.00586.7656-.00586.5-1-.01.00586-.5.00586-.7812.00195-.037.017578-.2188.042969-.498zm.140625 3.3321l.1523437.6816.076172.25.1464844.4785-.9570313.293-.1445312-.4785-.082031-.2695-.00977-.037-.1582031-.7011-.1074219-.4883L4.1015625 1038zm.9238281 2.7226l.1445313.3028.00391.01.3105469.5312.2519531.4317-.8632812.5058-.2519531-.4316-.3144532-.5391-.017578-.035-.1640625-.3379-.21875-.4512.9003906-.4355z" color="#000" font-size="medium" overflow="visible" style="line-height:125%;text-indent:0;text-align:start;text-decoration-line:none;text-decoration-style:solid;text-decoration-color:#000;text-transform:none;block-progression:tb;isolation:auto;mix-blend-mode:normal"/></g></svg>