<svg xmlns="http://www.w3.org/2000/svg" enable-background="new 0 0 47.5 47.5" viewBox="0 0 47.5 47.5"><defs><clipPath id="a" clipPathUnits="userSpaceOnUse"><path d="M 0,38 38,38 38,0 0,0 0,38 Z"/></clipPath></defs><g clip-path="url(#a)" transform="matrix(1.25 0 0 -1.25 0 47.5)"><path fill="#ccd6dd" d="m 0,0 c 0,-0.828 -0.672,-1.5 -1.5,-1.5 l -33,0 c -0.829,0 -1.5,0.672 -1.5,1.5 0,0.828 0.671,1.5 1.5,1.5 l 33,0 C -0.672,1.5 0,0.828 0,0" transform="translate(37 2.5)"/><path fill="#55acee" d="m 0,0 c 0,0 -0.522,-0.063 -1.05,-2.158 -0.526,-2.089 -0.342,-4.063 -0.344,-6.656 -0.001,-0.671 1.045,-1.082 1.045,-1.082 L 33.17,-9.937 c 0,0 1.048,0.443 1.048,1.079 0.003,1.354 -0.67,5.237 -5.071,5.237 -1.047,0 -5.27,-0.049 -8.537,2.341 -1.208,0.882 -5.86,2.852 -7.953,3.934 C 10.563,3.738 10.473,-1.094 6.283,-1.088 2.094,-1.082 2.095,-0.004 0,0" transform="translate(2.452 13.613)"/><path fill="#269" d="M 0,0 -0.61,1.783 C 2.086,2.706 3.007,4.471 3.045,4.545 L 4.736,3.714 C 4.686,3.611 3.475,1.189 0,0" transform="translate(13.312 9.98)"/><path fill="#269" d="M 0,0 -0.611,1.783 C 2.086,2.707 3.031,4.52 3.04,4.537 L 4.735,3.713 C 4.684,3.61 3.473,1.19 0,0" transform="translate(18.043 7.697)"/><path fill="#3b88c3" d="m 0,0 -34,0 c -0.552,0 -1,0.447 -1,1 0,0.553 0.448,1 1,1 L 0,2 C 0.553,2 1,1.553 1,1 1,0.447 0.553,0 0,0" transform="translate(36 3)"/></g></svg>