<svg xmlns="http://www.w3.org/2000/svg" width="32" height="32" viewBox="0 0 32 32"><g transform="translate(0 -1020.362)"><path style="isolation:auto;mix-blend-mode:normal" fill="#25b39e" d="m 7.513312,1033.9345 c -0.444901,0.2634 -0.953826,0.4277 -1.5,0.4277 l 0,12 11,0 0,-12.209 c -0.170555,-0.065 -0.344029,-0.1264 -0.5,-0.2187 -0.444901,0.2634 -0.953826,0.4277 -1.5,0.4277 -0.546174,0 -1.055099,-0.1643 -1.5,-0.4277 -0.444901,0.2634 -0.953826,0.4277 -1.5,0.4277 -0.546174,0 -1.055099,-0.1643 -1.5,-0.4277 -0.444901,0.2634 -0.953826,0.4277 -1.5,0.4277 -0.546174,0 -1.055099,-0.1643 -1.5,-0.4277 z" color="#000" overflow="visible"/><path d="M4.0136719 1031.3418l0 16.4883 1 0 0-16.4883-1 0zm24.0000001 0l0 17.0195-9.285156 0 0 1 9.75 0 .03516 0a.50004997.50004997 0 0 0 .5-.5l0-17.5195-1 0zM4.9414062 1021.3613a.50005.50005 0 0 0-.4667968.3223l-3.4277344 9 .9335938.3574 3.3066406-8.6797 22.4531246 0 3.306641 8.6797.933594-.3574-3.427735-9-.46875.6777 0-1-23.1425778 0z" color="#000" font-family="sans-serif" font-weight="400" overflow="visible" style="line-height:normal;text-indent:0;text-align:start;text-decoration-line:none;text-decoration-style:solid;text-decoration-color:#000;text-transform:none;block-progression:tb;isolation:auto;mix-blend-mode:normal"/><path d="m 1.5136719,1047.3613 a 0.50004997,0.50004997 0 0 0 -0.5,0.5 l 0,0.9375 0,2.0625 a 0.50004997,0.50004997 0 0 0 0.3457031,0.4746 0.50004997,0.50004997 0 0 0 0.048828,0.014 0.50004997,0.50004997 0 0 0 0.097656,0.012 0.50004997,0.50004997 0 0 0 0.00781,0 l 16.9648441,0 0.03516,0 a 0.50004997,0.50004997 0 0 0 0.09961,-0.01 0.50004997,0.50004997 0 0 0 0.400391,-0.4903 l 0,-3 -0.0078,0.01 a 0.50004997,0.50004997 0 0 0 -0.492187,-0.5078 l -17.0000001,0 z m 0.5,1 16.0000001,0 0,2 -16.0000001,0 0,-1.5625 0,-0.4375 z" color="#000" font-family="sans-serif" font-weight="400" overflow="visible" style="line-height:normal;text-indent:0;text-align:start;text-decoration-line:none;text-decoration-style:solid;text-decoration-color:#000;text-transform:none;block-progression:tb;isolation:auto;mix-blend-mode:normal"/><path d="m 18.519531,1048.3613 a 0.50004997,0.50004997 0 0 0 -0.492187,0.5078 l -0.0078,-0.01 0,2 a 0.50004997,0.50004997 0 0 0 0.5,0.5 l 10.472657,0 0,-1 -9.972657,0 0,-1 9.972657,0 0,-1 -10.472657,0 z" color="#000" font-family="sans-serif" font-weight="400" overflow="visible" style="line-height:normal;text-indent:0;text-align:start;text-decoration-line:none;text-decoration-style:solid;text-decoration-color:#000;text-transform:none;block-progression:tb;isolation:auto;mix-blend-mode:normal"/><path d="M28.513672 1047.3613a.50005.50005 0 0 0-.5.5l0 3a.50005.50005 0 0 0 .345703.4746.50005.50005 0 0 0 .04883.014.50005.50005 0 0 0 .09766.012.50005.50005 0 0 0 .0078 0l2.964844 0 .03516 0a.50005.50005 0 0 0 .09961-.01.50005.50005 0 0 0 .400391-.4903l0-3-.0078.01a.50005.50005 0 0 0-.492187-.5078l-3 0zm.5 1l2 0 0 2-2 0 0-2zM4.4960938 1030.8418a.50004997.50004997 0 0 0-.4921876.5059l0 16.4511a.50004997.50004997 0 1 0 1 0l0-16.4511a.50004997.50004997 0 0 0-.5078124-.5059zm14.0195312 1.4473a.50004997.50004997 0 0 0-.492187.5078l0 16.0644a.50004997.50004997 0 1 0 1 0l0-16.0644a.50004997.50004997 0 0 0-.507813-.5078zM20.513672 1038.3613c-.276131 0-.499972.2239-.5.5l0 10c.000028.2761.223869.5.5.5l5.964844 0 .03516 0c.276131 0 .499972-.2239.5-.5l0-10.5246-.5.02 0 0zm.5 1l5 0 0 9-5 0z" color="#000" font-family="sans-serif" font-weight="400" overflow="visible" style="line-height:normal;text-indent:0;text-align:start;text-decoration-line:none;text-decoration-style:solid;text-decoration-color:#000;text-transform:none;block-progression:tb;isolation:auto;mix-blend-mode:normal"/><path d="m 1.5058594,1030.3652 a 0.50004997,0.50004997 0 0 0 -0.4921875,0.5059 l 0,0.4902 c 0,1.0994 0.9006486,2 2,2 1.0993513,0 2,-0.9006 2,-2 a 0.50004997,0.50004997 0 1 0 -1,0 c 0,0.5627 -0.4373514,1 -1,1 -0.5626487,0 -1,-0.4373 -1,-1 l 0,-0.4902 a 0.50004997,0.50004997 0 0 0 -0.5078125,-0.5059 z" color="#000" font-family="sans-serif" font-weight="400" overflow="visible" style="line-height:normal;text-indent:0;text-align:start;text-decoration-line:none;text-decoration-style:solid;text-decoration-color:#000;text-transform:none;block-progression:tb;isolation:auto;mix-blend-mode:normal"/><path d="m 4.5058594,1030.8555 a 0.50004997,0.50004997 0 0 0 -0.4921875,0.5058 c 0,1.0994 0.9006486,2 2,2 1.0993513,0 2,-0.9006 2,-2 a 0.50004997,0.50004997 0 1 0 -1,0 c 0,0.5627 -0.4373514,1 -1,1 -0.5626487,0 -1,-0.4373 -1,-1 a 0.50004997,0.50004997 0 0 0 -0.5078125,-0.5058 z" color="#000" font-family="sans-serif" font-weight="400" overflow="visible" style="line-height:normal;text-indent:0;text-align:start;text-decoration-line:none;text-decoration-style:solid;text-decoration-color:#000;text-transform:none;block-progression:tb;isolation:auto;mix-blend-mode:normal"/><path d="m 7.5058594,1030.8555 a 0.50004997,0.50004997 0 0 0 -0.4921875,0.5058 c 0,1.0994 0.9006486,2 2,2 1.0993511,0 2.0000001,-0.9006 2.0000001,-2 a 0.50004997,0.50004997 0 1 0 -1,0 c 0,0.5627 -0.4373515,1 -1.0000001,1 -0.5626487,0 -1,-0.4373 -1,-1 a 0.50004997,0.50004997 0 0 0 -0.5078125,-0.5058 z" color="#000" font-family="sans-serif" font-weight="400" overflow="visible" style="line-height:normal;text-indent:0;text-align:start;text-decoration-line:none;text-decoration-style:solid;text-decoration-color:#000;text-transform:none;block-progression:tb;isolation:auto;mix-blend-mode:normal"/><path d="m 10.505859,1030.8555 a 0.50004997,0.50004997 0 0 0 -0.492187,0.5058 c 0,1.0994 0.900649,2 2,2 1.099351,0 2,-0.9006 2,-2 a 0.50004997,0.50004997 0 1 0 -1,0 c 0,0.5627 -0.437351,1 -1,1 -0.562649,0 -1,-0.4373 -1,-1 a 0.50004997,0.50004997 0 0 0 -0.507813,-0.5058 z" color="#000" font-family="sans-serif" font-weight="400" overflow="visible" style="line-height:normal;text-indent:0;text-align:start;text-decoration-line:none;text-decoration-style:solid;text-decoration-color:#000;text-transform:none;block-progression:tb;isolation:auto;mix-blend-mode:normal"/><path d="m 13.505859,1030.8555 a 0.50004997,0.50004997 0 0 0 -0.492187,0.5058 c 0,1.0994 0.900649,2 2,2 1.099351,0 2,-0.9006 2,-2 a 0.50004997,0.50004997 0 1 0 -1,0 c 0,0.5627 -0.437351,1 -1,1 -0.562649,0 -1,-0.4373 -1,-1 a 0.50004997,0.50004997 0 0 0 -0.507813,-0.5058 z" color="#000" font-family="sans-serif" font-weight="400" overflow="visible" style="line-height:normal;text-indent:0;text-align:start;text-decoration-line:none;text-decoration-style:solid;text-decoration-color:#000;text-transform:none;block-progression:tb;isolation:auto;mix-blend-mode:normal"/><path d="m 16.505859,1030.8555 a 0.50004997,0.50004997 0 0 0 -0.492187,0.5058 c 0,1.0994 0.900649,2 2,2 1.099351,0 2,-0.9006 2,-2 a 0.50004997,0.50004997 0 1 0 -1,0 c 0,0.5627 -0.437351,1 -1,1 -0.562649,0 -1,-0.4373 -1,-1 a 0.50004997,0.50004997 0 0 0 -0.507813,-0.5058 z" color="#000" font-family="sans-serif" font-weight="400" overflow="visible" style="line-height:normal;text-indent:0;text-align:start;text-decoration-line:none;text-decoration-style:solid;text-decoration-color:#000;text-transform:none;block-progression:tb;isolation:auto;mix-blend-mode:normal"/><path d="m 19.505859,1030.8555 a 0.50004997,0.50004997 0 0 0 -0.492187,0.5058 c 0,1.0994 0.900649,2 2,2 1.099351,0 2,-0.9006 2,-2 a 0.50004997,0.50004997 0 1 0 -1,0 c 0,0.5627 -0.437351,1 -1,1 -0.562649,0 -1,-0.4373 -1,-1 a 0.50004997,0.50004997 0 0 0 -0.507813,-0.5058 z" color="#000" font-family="sans-serif" font-weight="400" overflow="visible" style="line-height:normal;text-indent:0;text-align:start;text-decoration-line:none;text-decoration-style:solid;text-decoration-color:#000;text-transform:none;block-progression:tb;isolation:auto;mix-blend-mode:normal"/><path d="m 22.505859,1030.8555 a 0.50004997,0.50004997 0 0 0 -0.492187,0.5058 c 0,1.0994 0.900649,2 2,2 1.099351,0 2,-0.9006 2,-2 a 0.50004997,0.50004997 0 1 0 -1,0 c 0,0.5627 -0.437351,1 -1,1 -0.562649,0 -1,-0.4373 -1,-1 a 0.50004997,0.50004997 0 0 0 -0.507813,-0.5058 z" color="#000" font-family="sans-serif" font-weight="400" overflow="visible" style="line-height:normal;text-indent:0;text-align:start;text-decoration-line:none;text-decoration-style:solid;text-decoration-color:#000;text-transform:none;block-progression:tb;isolation:auto;mix-blend-mode:normal"/><path d="m 25.505859,1030.8555 a 0.50004997,0.50004997 0 0 0 -0.492187,0.5058 c 0,1.0994 0.900649,2 2,2 1.099351,0 2,-0.9006 2,-2 a 0.50004997,0.50004997 0 1 0 -1,0 c 0,0.5627 -0.437351,1 -1,1 -0.562649,0 -1,-0.4373 -1,-1 a 0.50004997,0.50004997 0 0 0 -0.507813,-0.5058 z" color="#000" font-family="sans-serif" font-weight="400" overflow="visible" style="line-height:normal;text-indent:0;text-align:start;text-decoration-line:none;text-decoration-style:solid;text-decoration-color:#000;text-transform:none;block-progression:tb;isolation:auto;mix-blend-mode:normal"/><path d="m 31.505859,1030.3125 a 0.50004997,0.50004997 0 0 0 -0.492187,0.5078 l 0,0.541 c 0,0.5627 -0.437351,1 -1,1 -0.562649,0 -1,-0.4373 -1,-1 a 0.50004997,0.50004997 0 1 0 -1,0 c 0,1.0994 0.900649,2 2,2 1.099351,0 2,-0.9006 2,-2 l 0,-0.541 a 0.50004997,0.50004997 0 0 0 -0.507813,-0.5078 z" color="#000" font-family="sans-serif" font-weight="400" overflow="visible" style="line-height:normal;text-indent:0;text-align:start;text-decoration-line:none;text-decoration-style:solid;text-decoration-color:#000;text-transform:none;block-progression:tb;isolation:auto;mix-blend-mode:normal"/><path style="line-height:normal;text-indent:0;text-align:start;text-decoration-line:none;text-decoration-style:solid;text-decoration-color:#000;text-transform:none;block-progression:tb;isolation:auto;mix-blend-mode:normal" fill-rule="evenodd" d="M22.013672 1042.3613l0 2 1 0 0-2-1 0zM8.5664062 1035.1387l-2 4 .8945313.4472 2-4-.8945313-.4472zM10.566406 1037.1387l-2.4999998 5 .8945313.4472 2.5000005-5-.894532-.4472z" color="#000" font-family="sans-serif" font-weight="400" overflow="visible"/><path d="m 4.9414062,1021.3613 a 0.50005,0.50005 0 0 0 -0.4667968,0.3223 l -3.4277344,9 0.9335938,0.3574 3.3066406,-8.6797 22.4531246,0 3.306641,8.6797 0.933594,-0.3574 -3.427735,-9 -0.0059,0.01 a 0.50005,0.50005 0 0 0 -0.462891,-0.3301 l -23.1425778,0 z" color="#000" font-family="sans-serif" font-weight="400" overflow="visible" style="line-height:normal;text-indent:0;text-align:start;text-decoration-line:none;text-decoration-style:solid;text-decoration-color:#000;text-transform:none;block-progression:tb;isolation:auto;mix-blend-mode:normal"/><path d="m 1.5058594,1030.3652 a 0.50004997,0.50004997 0 0 0 -0.4921875,0.5059 l 0,0.4902 c 0,1.0994 0.9006486,2 2,2 1.0993513,0 2,-0.9006 2,-2 a 0.50004997,0.50004997 0 1 0 -1,0 c 0,0.5627 -0.4373514,1 -1,1 -0.5626487,0 -1,-0.4373 -1,-1 l 0,-0.4902 a 0.50004997,0.50004997 0 0 0 -0.5078125,-0.5059 z" color="#000" font-family="sans-serif" font-weight="400" overflow="visible" style="line-height:normal;text-indent:0;text-align:start;text-decoration-line:none;text-decoration-style:solid;text-decoration-color:#000;text-transform:none;block-progression:tb;isolation:auto;mix-blend-mode:normal"/><path d="m 4.5058594,1030.8555 a 0.50004997,0.50004997 0 0 0 -0.4921875,0.5058 c 0,1.0994 0.9006486,2 2,2 1.0993513,0 2,-0.9006 2,-2 a 0.50004997,0.50004997 0 1 0 -1,0 c 0,0.5627 -0.4373514,1 -1,1 -0.5626487,0 -1,-0.4373 -1,-1 a 0.50004997,0.50004997 0 0 0 -0.5078125,-0.5058 z" color="#000" font-family="sans-serif" font-weight="400" overflow="visible" style="line-height:normal;text-indent:0;text-align:start;text-decoration-line:none;text-decoration-style:solid;text-decoration-color:#000;text-transform:none;block-progression:tb;isolation:auto;mix-blend-mode:normal"/><path d="m 7.5058594,1030.8555 a 0.50004997,0.50004997 0 0 0 -0.4921875,0.5058 c 0,1.0994 0.9006486,2 2,2 1.0993511,0 2.0000001,-0.9006 2.0000001,-2 a 0.50004997,0.50004997 0 1 0 -1,0 c 0,0.5627 -0.4373515,1 -1.0000001,1 -0.5626487,0 -1,-0.4373 -1,-1 a 0.50004997,0.50004997 0 0 0 -0.5078125,-0.5058 z" color="#000" font-family="sans-serif" font-weight="400" overflow="visible" style="line-height:normal;text-indent:0;text-align:start;text-decoration-line:none;text-decoration-style:solid;text-decoration-color:#000;text-transform:none;block-progression:tb;isolation:auto;mix-blend-mode:normal"/><path d="m 10.505859,1030.8555 a 0.50004997,0.50004997 0 0 0 -0.492187,0.5058 c 0,1.0994 0.900649,2 2,2 1.099351,0 2,-0.9006 2,-2 a 0.50004997,0.50004997 0 1 0 -1,0 c 0,0.5627 -0.437351,1 -1,1 -0.562649,0 -1,-0.4373 -1,-1 a 0.50004997,0.50004997 0 0 0 -0.507813,-0.5058 z" color="#000" font-family="sans-serif" font-weight="400" overflow="visible" style="line-height:normal;text-indent:0;text-align:start;text-decoration-line:none;text-decoration-style:solid;text-decoration-color:#000;text-transform:none;block-progression:tb;isolation:auto;mix-blend-mode:normal"/><path d="m 13.505859,1030.8555 a 0.50004997,0.50004997 0 0 0 -0.492187,0.5058 c 0,1.0994 0.900649,2 2,2 1.099351,0 2,-0.9006 2,-2 a 0.50004997,0.50004997 0 1 0 -1,0 c 0,0.5627 -0.437351,1 -1,1 -0.562649,0 -1,-0.4373 -1,-1 a 0.50004997,0.50004997 0 0 0 -0.507813,-0.5058 z" color="#000" font-family="sans-serif" font-weight="400" overflow="visible" style="line-height:normal;text-indent:0;text-align:start;text-decoration-line:none;text-decoration-style:solid;text-decoration-color:#000;text-transform:none;block-progression:tb;isolation:auto;mix-blend-mode:normal"/><path d="m 16.505859,1030.8555 a 0.50004997,0.50004997 0 0 0 -0.492187,0.5058 c 0,1.0994 0.900649,2 2,2 1.099351,0 2,-0.9006 2,-2 a 0.50004997,0.50004997 0 1 0 -1,0 c 0,0.5627 -0.437351,1 -1,1 -0.562649,0 -1,-0.4373 -1,-1 a 0.50004997,0.50004997 0 0 0 -0.507813,-0.5058 z" color="#000" font-family="sans-serif" font-weight="400" overflow="visible" style="line-height:normal;text-indent:0;text-align:start;text-decoration-line:none;text-decoration-style:solid;text-decoration-color:#000;text-transform:none;block-progression:tb;isolation:auto;mix-blend-mode:normal"/><path d="m 19.505859,1030.8555 a 0.50004997,0.50004997 0 0 0 -0.492187,0.5058 c 0,1.0994 0.900649,2 2,2 1.099351,0 2,-0.9006 2,-2 a 0.50004997,0.50004997 0 1 0 -1,0 c 0,0.5627 -0.437351,1 -1,1 -0.562649,0 -1,-0.4373 -1,-1 a 0.50004997,0.50004997 0 0 0 -0.507813,-0.5058 z" color="#000" font-family="sans-serif" font-weight="400" overflow="visible" style="line-height:normal;text-indent:0;text-align:start;text-decoration-line:none;text-decoration-style:solid;text-decoration-color:#000;text-transform:none;block-progression:tb;isolation:auto;mix-blend-mode:normal"/><path d="m 22.505859,1030.8555 a 0.50004997,0.50004997 0 0 0 -0.492187,0.5058 c 0,1.0994 0.900649,2 2,2 1.099351,0 2,-0.9006 2,-2 a 0.50004997,0.50004997 0 1 0 -1,0 c 0,0.5627 -0.437351,1 -1,1 -0.562649,0 -1,-0.4373 -1,-1 a 0.50004997,0.50004997 0 0 0 -0.507813,-0.5058 z" color="#000" font-family="sans-serif" font-weight="400" overflow="visible" style="line-height:normal;text-indent:0;text-align:start;text-decoration-line:none;text-decoration-style:solid;text-decoration-color:#000;text-transform:none;block-progression:tb;isolation:auto;mix-blend-mode:normal"/><path d="m 25.505859,1030.8555 a 0.50004997,0.50004997 0 0 0 -0.492187,0.5058 c 0,1.0994 0.900649,2 2,2 1.099351,0 2,-0.9006 2,-2 a 0.50004997,0.50004997 0 1 0 -1,0 c 0,0.5627 -0.437351,1 -1,1 -0.562649,0 -1,-0.4373 -1,-1 a 0.50004997,0.50004997 0 0 0 -0.507813,-0.5058 z" color="#000" font-family="sans-serif" font-weight="400" overflow="visible" style="line-height:normal;text-indent:0;text-align:start;text-decoration-line:none;text-decoration-style:solid;text-decoration-color:#000;text-transform:none;block-progression:tb;isolation:auto;mix-blend-mode:normal"/><path d="m 31.505859,1030.3125 a 0.50004997,0.50004997 0 0 0 -0.492187,0.5078 l 0,0.541 c 0,0.5627 -0.437351,1 -1,1 -0.562649,0 -1,-0.4373 -1,-1 a 0.50004997,0.50004997 0 1 0 -1,0 c 0,1.0994 0.900649,2 2,2 1.099351,0 2,-0.9006 2,-2 l 0,-0.541 a 0.50004997,0.50004997 0 0 0 -0.507813,-0.5078 z" color="#000" font-family="sans-serif" font-weight="400" overflow="visible" style="line-height:normal;text-indent:0;text-align:start;text-decoration-line:none;text-decoration-style:solid;text-decoration-color:#000;text-transform:none;block-progression:tb;isolation:auto;mix-blend-mode:normal"/><path style="isolation:auto;mix-blend-mode:normal" fill="#f8b84e" d="m 5.976283,1023.3621 -2.76953,7.2695 a 1.50015,1.50015 0 0 1 1.30664,-0.7695 1.50015,1.50015 0 0 1 1.5,1.5 1.499995,1.5 0 0 1 1.5,-1.5 1.499995,1.5 0 0 1 1.5,1.5 1.50015,1.50015 0 0 1 1.5,-1.5 1.50015,1.50015 0 0 1 1.5,1.5 1.50015,1.50015 0 0 1 1.5,-1.5 1.50015,1.50015 0 0 1 1.5,1.5 1.50015,1.50015 0 0 1 1.5,-1.5 1.50015,1.50015 0 0 1 1.5,1.5 1.50015,1.50015 0 0 1 1.5,-1.5 1.50015,1.50015 0 0 1 1.5,1.5 1.50015,1.50015 0 0 1 1.5,-1.5 1.50015,1.50015 0 0 1 1.5,1.5 1.50015,1.50015 0 0 1 1.5,-1.5 1.50015,1.50015 0 0 1 1.5,1.5 1.50015,1.50015 0 0 1 0.002,-0.09 1.50015,1.50015 0 0 1 2.80274,-0.6445 l -2.76763,-7.2657 -21.07422,0 z m -2.92773,7.6836 -0.0352,0.094 0,0.2031 a 1.50015,1.50015 0 0 1 0.0352,-0.2969 z m 26.92968,0 a 1.50015,1.50015 0 0 1 0.03516,0.2968 l 0,-0.2031 -0.0352,-0.094 z m 0.0352,0.3164 c 0,0.034 -0.0361,0.054 -0.0371,0.088 l 0.0352,0 0.002,-0.088 z" color="#000" overflow="visible"/><path fill="#25b39e" fill-rule="evenodd" d="m 22.013312,1041.3622 0,-1 3,0 0,7 -3,0 0,-2 2,0 0,-4 z"/><path style="isolation:auto;mix-blend-mode:normal" fill="#25b39e" d="m 22.513312,1033.9345 c -0.444901,0.2634 -0.953826,0.4277 -1.5,0.4277 -0.354699,0 -0.684054,-0.088 -1,-0.209 l 0,3.209 7,0 0,-3 c -0.546174,0 -1.055099,-0.1643 -1.5,-0.4277 -0.444901,0.2634 -0.953826,0.4277 -1.5,0.4277 -0.546174,0 -1.055099,-0.1643 -1.5,-0.4277 z" color="#000" overflow="visible"/></g></svg>