<svg xmlns="http://www.w3.org/2000/svg" width="32" height="32" viewBox="0 0 32 32"><g transform="translate(0 -1020.362)"><path fill="#25b39e" fill-rule="evenodd" style="isolation:auto;mix-blend-mode:normal" d="m 4.13087,1026.3622 -1.33984,5 9.70507,0 7.996098,0 c 0.179939,-5e-4 0.346271,0.096 0.435546,0.252 l 4,7 c 0.08781,0.1537 0.08781,0.3423 0,0.496 l -1.072265,1.875 1.638672,-1.6523 -2.052735,-7.7969 -7.724606,-2.0683 z" color="#000" overflow="visible"/><path fill="#f8b84e" style="isolation:auto;mix-blend-mode:normal" d="m 12.499978,1039.3622 a 3.4999988,3.4999988 0 0 1 -3.499999,3.5 3.4999988,3.4999988 0 0 1 -3.4999988,-3.5 3.4999988,3.4999988 0 0 1 3.4999988,-3.5 3.4999988,3.4999988 0 0 1 3.499999,3.5 z" color="#000" overflow="visible"/><path fill-rule="evenodd" style="line-height:normal;text-indent:0;text-align:start;text-decoration-line:none;text-decoration-style:solid;text-decoration-color:#000;text-transform:none;block-progression:tb;isolation:auto;mix-blend-mode:normal" d="m 0.5,1031.3613 a 0.50005,0.50005 0 0 0 -0.5,0.5 l 0,7 0,7 a 0.50005,0.50005 0 0 0 0.5,0.5 l 11.996094,0 7.996094,0 a 0.50005,0.50005 0 0 0 0.435546,-0.2519 l 4,-7 a 0.50005,0.50005 0 0 0 0,-0.4961 l -4,-7 a 0.50005,0.50005 0 0 0 -0.435546,-0.252 l -7.996094,0 -11.996094,0 z m 0.5,1 11.496094,0 7.707031,0 3.714844,6.5 -3.714844,6.5 -7.707031,0 -11.496094,0 0,-6.5 0,-6.5 z" color="#000" font-family="sans-serif" font-weight="400" overflow="visible"/><path fill-rule="evenodd" style="line-height:normal;text-indent:0;text-align:start;text-decoration-line:none;text-decoration-style:solid;text-decoration-color:#000;text-transform:none;block-progression:tb;isolation:auto;mix-blend-mode:normal" d="m 21.992188,1038.8613 c 4e-5,-1.0967 -0.899383,-1.9961 -1.996094,-1.9961 -1.096712,0 -1.996134,0.8994 -1.996094,1.9961 3.3e-5,1.0967 0.899433,1.9981 1.996094,1.9981 1.096661,0 1.99606,-0.9014 1.996094,-1.9981 z m -1,0 c -1.7e-5,0.5563 -0.439863,0.9981 -0.996094,0.9981 -0.556232,0 -0.996077,-0.4418 -0.996094,-0.9981 -2e-5,-0.5562 0.439835,-0.9961 0.996094,-0.9961 0.556258,0 0.996114,0.4399 0.996094,0.9961 z" color="#000" font-family="sans-serif" font-weight="400" overflow="visible"/><path fill-rule="evenodd" style="line-height:normal;text-indent:0;text-align:start;text-decoration-line:none;text-decoration-style:solid;text-decoration-color:#000;text-transform:none;block-progression:tb;isolation:auto;mix-blend-mode:normal" d="m 20.160156,1039.9219 c -0.226864,-0.7144 -0.225578,-1.5022 0.04102,-2.2442 a 0.50010541,0.50010541 0 0 1 0.941406,0.3379 c -0.38225,1.0638 -0.0079,2.2465 0.917969,2.8946 0.925866,0.648 2.165109,0.5967 3.033203,-0.127 0.868106,-0.7237 1.142288,-1.933 0.671875,-2.9609 -0.470414,-1.0279 -1.564871,-1.6102 -2.679687,-1.4258 a 0.50005,0.50005 0 1 1 -0.16211,-0.9863 c 1.555429,-0.2573 3.095777,0.5623 3.751953,1.996 0.656174,1.4338 0.269661,3.135 -0.941406,4.1446 -1.211051,1.0096 -2.954416,1.0838 -4.246094,0.1797 -0.645828,-0.4521 -1.10126,-1.0943 -1.328125,-1.8086 z" color="#000" font-family="sans-serif" font-weight="400" overflow="visible"/><path fill-rule="evenodd" style="line-height:normal;text-indent:0;text-align:start;text-decoration-line:none;text-decoration-style:solid;text-decoration-color:#000;text-transform:none;block-progression:tb;isolation:auto;mix-blend-mode:normal" d="m 25.992188,1038.3613 0,1 2.5,0 0,-1 -2.5,0 z" color="#000" font-family="sans-serif" font-weight="400" overflow="visible"/><path fill-rule="evenodd" style="line-height:normal;text-indent:0;text-align:start;text-decoration-line:none;text-decoration-style:solid;text-decoration-color:#000;text-transform:none;block-progression:tb;isolation:auto;mix-blend-mode:normal" d="M 27.992188,1038.8555 A 0.50005,0.50005 0 0 1 28.5,1038.3613 c 0.928069,0 1.818372,0.3692 2.474609,1.0254 0.656236,0.6563 1.025385,1.5466 1.025391,2.4746 a 0.50005,0.50005 0 1 1 -1,0 c -5e-6,-0.6632 -0.263449,-1.2986 -0.732422,-1.7675 -0.468974,-0.469 -1.104342,-0.7325 -1.767578,-0.7325 a 0.50005,0.50005 0 0 1 -0.507812,-0.5058 z" color="#000" font-family="sans-serif" font-weight="400" overflow="visible"/><g style="line-height:125%"><path d="m 6.2686778,1034.5456 c -1.4102564,0 -2.2686734,0.9565 -2.2686734,2.5507 0,1.6065 0.858417,2.5753 2.2686734,2.5753 1.4102565,0 2.2686735,-0.9688 2.2686735,-2.5753 0,-1.5942 -0.858417,-2.5507 -2.2686735,-2.5507 z m -0.6499443,8.6087 1.3612041,0 6.3032334,-8.5842 -1.348941,0 -6.3154965,8.5842 z m 0.6499443,-7.7748 c 0.8461539,0 1.3366779,0.6254 1.3366779,1.7168 0,1.1037 -0.490524,1.7414 -1.3366779,1.7414 -0.8461539,0 -1.3244147,-0.6377 -1.3244147,-1.7414 0,-1.0914 0.4782608,-1.7168 1.3244147,-1.7168 z m 6.4626532,2.6856 c -1.410256,0 -2.268673,0.9565 -2.268673,2.5507 0,1.6065 0.858417,2.563 2.268673,2.563 1.410257,0 2.268674,-0.9565 2.268674,-2.563 0,-1.5942 -0.858417,-2.5507 -2.268674,-2.5507 z m 0,0.8216 c 0.846154,0 1.336678,0.6377 1.336678,1.7291 0,1.1037 -0.490524,1.7291 -1.336678,1.7291 -0.846154,0 -1.324414,-0.6254 -1.324414,-1.7291 0,-1.0914 0.47826,-1.7291 1.324414,-1.7291 z" font-family="Montserrat" font-size="12.263" font-weight="400" letter-spacing="0" word-spacing="0" style="-inkscape-font-specification:Montserrat"/></g></g></svg>