<svg xmlns="http://www.w3.org/2000/svg" width="32" height="32" viewBox="0 0 32 32"><g font-family="sans-serif" font-size="45.121" font-weight="400" letter-spacing="0" transform="translate(0 -1020.362)" word-spacing="0"><path fill="#f8b84e" d="m 13.399386,1024.3393 c -0.12645,0.162 -0.237481,0.2727 -0.398438,0.4004 l 0,10.0359 6,0 0,-10.0359 c -0.160964,-0.1277 -0.271981,-0.2384 -0.398438,-0.4004 z"/><path fill="#25b39e" d="m 4.4657916,1036.3393 c -0.1834743,0 -0.2519532,0.089 -0.2519532,0.2129 l 0,13.623 c 0,0.1239 0.068582,0.211 0.2519532,0.211 l 23.2832034,0 c 0.183373,0 0.251953,-0.087 0.251953,-0.211 l 0,-1.8359 -8.931641,0 -2.068359,-2.0273 0,-3.1543 0,-1.7871 2.068359,-2.0274 8.931641,0 0,-2.791 c 0,-0.1239 -0.06848,-0.2129 -0.251953,-0.2129 l -23.2832034,0 z m 15.8281254,6.0039 -0.292969,0.2871 0,0.5274 0,1.8945 0.292969,0.2871 7.707031,0 0,-2.9961 -7.707031,0 z"/><path style="line-height:125%;text-indent:0;text-align:start;text-decoration-line:none;text-decoration-style:solid;text-decoration-color:#000;text-transform:none;block-progression:tb;isolation:auto;mix-blend-mode:normal" d="m 9.4960938,1022.3125 a 0.50005,0.50005 0 0 0 -0.1347657,0.019 l -7.3476562,1.9688 c -0.7228197,0.1937 -1.16048017,0.9509 -0.9667969,1.6738 l 2.3808594,8.8887 a 0.50054772,0.50054772 0 1 0 0.9667968,-0.2598 l -2.3808593,-8.8867 c -0.054783,-0.2045 0.053082,-0.3944 0.2578125,-0.4492 l 7.3496094,-1.9688 a 0.50005,0.50005 0 0 0 -0.125,-0.9863 z" color="#000" font-size="medium" overflow="visible"/><path d="m 8.490204,1026.7077 c -0.533244,0.1429 -0.849683,0.693 -0.706556,1.2272 0.143152,0.5342 0.690743,0.8468 1.223987,0.7039 0.532955,-0.1428 0.851017,-0.6873 0.707864,-1.2216 -0.143127,-0.5341 -0.69234,-0.8523 -1.225295,-0.7095 l 0,0 z"/><path style="line-height:125%;text-indent:0;text-align:start;text-decoration-line:none;text-decoration-style:solid;text-decoration-color:#000;text-transform:none;block-progression:tb;isolation:auto;mix-blend-mode:normal" d="M9.3457031 1024.4238a.50005.50005 0 0 0-.1328125.02l-4.5996094 1.2324a.50005.50005 0 0 0-.3535156.6113c.078394.2926-.085135.5748-.3671875.6504a.50005.50005 0 0 0-.3535156.6113l1.9394531 7.2344a.50005.50005 0 1 0 .9648438-.2598l-1.8632813-6.9531c.3421088-.2544.529929-.5808.5761719-1.0058l4.3164062-1.1563a.50005.50005 0 0 0-.1269531-.9844zM22.492188 1022.3125a.50005.50005 0 0 0-.111329.9863l7.34961 1.9688c.20473.055.312595.2447.257812.4492l-2.382812 8.8906a.50054782.50054782 0 1 0 .966797.2598l2.382812-8.8926c.193683-.7229-.243977-1.4801-.966797-1.6738l-7.347656-1.9688a.50005.50005 0 0 0-.148437-.019z" color="#000" font-size="medium" overflow="visible"/><path d="m 23.511686,1026.7077 c 0.533244,0.1429 0.849683,0.693 0.706556,1.2272 -0.143152,0.5342 -0.690743,0.8468 -1.223987,0.7039 -0.532955,-0.1428 -0.851017,-0.6873 -0.707864,-1.2216 0.143127,-0.5341 0.69234,-0.8523 1.225295,-0.7095 l 0,0 z"/><path style="line-height:125%;text-indent:0;text-align:start;text-decoration-line:none;text-decoration-style:solid;text-decoration-color:#000;text-transform:none;block-progression:tb;isolation:auto;mix-blend-mode:normal" d="m 22.640625,1024.4238 a 0.50005,0.50005 0 0 0 -0.111328,0.9844 l 4.316406,1.1563 c 0.04624,0.425 0.234063,0.7514 0.576172,1.0058 l -1.886719,7.0391 a 0.50028924,0.50028924 0 1 0 0.966797,0.2578 l 1.960938,-7.3184 a 0.50005,0.50005 0 0 0 -0.353516,-0.6113 c -0.282053,-0.076 -0.445582,-0.3578 -0.367187,-0.6504 a 0.50005,0.50005 0 0 0 -0.353516,-0.6113 l -4.59961,-1.2324 a 0.50005,0.50005 0 0 0 -0.148437,-0.02 z" color="#000" font-size="medium" overflow="visible"/><path style="line-height:125%;text-indent:0;text-align:start;text-decoration-line:none;text-decoration-style:solid;text-decoration-color:#000;text-transform:none;block-progression:tb;isolation:auto;mix-blend-mode:normal" d="m 4.4648438,1034.3398 c -1.2323803,0 -2.25,0.9883 -2.25,2.211 l 0,13.623 c 0,1.2227 1.0176197,2.211 2.25,2.211 l 23.2851562,0 c 1.23238,0 2.25,-0.9883 2.25,-2.211 l 0,-13.623 c 0,-1.2227 -1.01762,-2.211 -2.25,-2.211 l -23.2851562,0 z m 0,1 23.2851562,0 c 0.707926,0 1.25,0.5375 1.25,1.211 l 0,13.623 c 0,0.6735 -0.542074,1.211 -1.25,1.211 l -23.2851562,0 c -0.7079274,0 -1.25,-0.5375 -1.25,-1.211 l 0,-13.623 c 0,-0.6735 0.5420726,-1.211 1.25,-1.211 z" color="#000" font-size="medium" overflow="visible"/><path fill-rule="evenodd" style="line-height:125%;text-indent:0;text-align:start;text-decoration-line:none;text-decoration-style:solid;text-decoration-color:#000;text-transform:none;block-progression:tb;isolation:auto;mix-blend-mode:normal" d="M 19.476562,1040.3418 18,1041.7891 l 0,1.3671 0,2.7364 1.476562,1.4472 10.523438,0 0,-6.998 -0.5,0 -10.023438,0 z m 0.410157,1 9.113281,0 0,4.998 -9.113281,0 L 19,1045.4727 l 0,-2.3165 0,-0.9472 0.886719,-0.8672 z" color="#000" font-size="medium" overflow="visible"/><path style="line-height:125%;text-indent:0;text-align:start;text-decoration-line:none;text-decoration-style:solid;text-decoration-color:#000;text-transform:none;block-progression:tb;isolation:auto;mix-blend-mode:normal" d="M21.431641 1042.4785c-.783827 0-1.431642.6478-1.431641 1.4317-.000001.7838.647814 1.4296 1.431641 1.4296.783826 0 1.429688-.6458 1.429687-1.4296.000001-.7839-.645861-1.4317-1.429687-1.4317zm0 1c.243222 0 .429687.1881.429687.4317 0 .2435-.186465.4296-.429687.4296-.243223 0-.431641-.1861-.431641-.4296 0-.2436.188418-.4317.431641-.4317zM10.367188 1020.3398c-.7483902 0-1.3652349.6169-1.3652349 1.3653l0 12.8515a.50005.50005 0 1 0 .9999999 0l0-12.8515c0-.2116.153369-.3653.365235-.3653l11.267578 0c.211864 0 .365234.1537.365234.3653l0 12.8515a.50005.50005 0 1 0 1 0l0-12.8515c0-.7484-.616845-1.3653-1.365234-1.3653l-11.267578 0z" color="#000" font-size="medium" overflow="visible"/><path d="m 16.000848,1024.3401 c 0.552055,0 1.0001,0.4495 1.0001,1.0025 0,0.5531 -0.448045,0.9967 -1.0001,0.9967 -0.551756,0 -0.9999,-0.4436 -0.9999,-0.9967 0,-0.553 0.448144,-1.0025 0.9999,-1.0025 l 0,0 z"/><path style="line-height:125%;text-indent:0;text-align:start;text-decoration-line:none;text-decoration-style:solid;text-decoration-color:#000;text-transform:none;block-progression:tb;isolation:auto;mix-blend-mode:normal" d="m 12.523438,1022.3398 a 0.50005,0.50005 0 0 0 -0.5,0.5 c 0,0.3029 -0.22951,0.5332 -0.521485,0.5332 a 0.50005,0.50005 0 0 0 -0.5,0.5 l 0,10.8321 a 0.50005,0.50005 0 1 0 1,0 l 0,-10.543 c 0.395299,-0.1573 0.65985,-0.4246 0.814453,-0.8223 l 6.369141,0 c 0.154619,0.3977 0.419139,0.665 0.814453,0.8223 l 0,10.543 a 0.50005,0.50005 0 1 0 1,0 l 0,-10.8321 a 0.50005,0.50005 0 0 0 -0.5,-0.5 c -0.291975,0 -0.521484,-0.2303 -0.521484,-0.5332 a 0.50005,0.50005 0 0 0 -0.5,-0.5 l -6.955078,0 z" color="#000" font-size="medium" overflow="visible"/><path d="m 13.000948,1032.8425 c 0,0.1841 0.15433,0.3307 0.338526,0.3279 l 0.291514,0 c 0.137417,0.6531 0.666671,1.1648 1.331824,1.1648 0.775157,0 1.369736,-0.6936 1.369736,-1.498 0,-0.4864 0.330361,-0.8314 0.702832,-0.8314 0.372588,0 0.701783,0.345 0.701783,0.8314 0,0.4865 -0.329311,0.8316 -0.701783,0.8316 -0.450746,-0.013 -0.450746,0.6728 0,0.6664 0.655938,0 1.123249,-0.5219 1.262883,-1.1648 l 0.364538,0 c 0.450863,0.014 0.450863,-0.6728 0,-0.6663 l -0.365705,0 c -0.140334,-0.6424 -0.605079,-1.1648 -1.260316,-1.1648 -0.70295,0 -1.368453,0.4985 -1.368453,1.4511 0,0.014 0,0.023 0,0.035 0,0 0,0.013 0,0.013 0,0.4864 -0.330477,0.8316 -0.702832,0.8316 -0.36769,0 -0.690466,-0.3373 -0.699216,-0.8134 0,-0.013 0,-0.025 0,-0.037 0.014,-0.4754 0.330711,-0.8122 0.697817,-0.8122 0.450745,0.014 0.450745,-0.6726 0,-0.6662 -0.665155,0 -1.194523,0.5116 -1.331824,1.1647 l -0.291632,0 c -0.188161,0 -0.341558,0.1503 -0.338408,0.3384 z" color="#000" font-size="medium" letter-spacing="normal" overflow="visible" word-spacing="normal" style="line-height:normal;text-indent:0;text-align:start;text-decoration-line:none;text-decoration-style:solid;text-decoration-color:#000;text-transform:none;block-progression:tb;isolation:auto;mix-blend-mode:normal"/></g></svg>